<svg width="199" height="58" viewBox="0 0 199 58" fill="none" xmlns="http://www.w3.org/2000/svg">
<g clip-path="url(#clip0_316_231)">
<path d="M0.660072 56.1825C0.552881 54.9712 1.44807 53.9022 2.65952 53.7967C67.2263 48.1721 132.05 46.036 196.847 47.3976C198.063 47.4232 199.027 48.4307 199 49.6463C198.972 50.8619 197.965 51.8253 196.75 51.7997C132.114 50.4417 67.4524 52.5725 3.04702 58.1829C1.83581 58.2884 0.76724 57.3936 0.660072 56.1825Z" fill="black"/>
<path d="M18.6559 42.72C16.2399 42.72 14.1519 42.12 12.3919 40.92C10.6479 39.72 9.29592 38.088 8.33592 36.024C7.39192 33.944 6.91992 31.608 6.91992 29.016C6.91992 26.408 7.39992 24.08 8.35992 22.032C9.31992 19.968 10.6799 18.344 12.4399 17.16C14.2159 15.96 16.3199 15.36 18.7519 15.36C21.1999 15.36 23.2559 15.96 24.9199 17.16C26.5999 18.344 27.8639 19.968 28.7119 22.032C29.5759 24.096 30.0079 26.424 30.0079 29.016C30.0079 31.608 29.5759 33.936 28.7119 36C27.8479 38.064 26.5759 39.704 24.8959 40.92C23.2159 42.12 21.1359 42.72 18.6559 42.72ZM19.3519 38.184C20.9999 38.184 22.3439 37.792 23.3839 37.008C24.4239 36.224 25.1839 35.144 25.6639 33.768C26.1439 32.392 26.3839 30.808 26.3839 29.016C26.3839 27.224 26.1359 25.64 25.6399 24.264C25.1599 22.888 24.4079 21.816 23.3839 21.048C22.3759 20.28 21.0879 19.896 19.5199 19.896C17.8559 19.896 16.4879 20.304 15.4159 21.12C14.3439 21.936 13.5439 23.032 13.0159 24.408C12.5039 25.784 12.2479 27.32 12.2479 29.016C12.2479 30.728 12.5039 32.28 13.0159 33.672C13.5439 35.048 14.3279 36.144 15.3679 36.96C16.4239 37.776 17.7519 38.184 19.3519 38.184ZM26.3839 42V23.352H25.8079V7.44H30.8479V42H26.3839ZM49.059 42.72C46.483 42.72 44.219 42.16 42.267 41.04C40.331 39.904 38.819 38.328 37.731 36.312C36.659 34.28 36.123 31.928 36.123 29.256C36.123 26.424 36.651 23.968 37.707 21.888C38.779 19.808 40.267 18.2 42.171 17.064C44.075 15.928 46.291 15.36 48.819 15.36C51.459 15.36 53.707 15.976 55.563 17.208C57.419 18.424 58.803 20.16 59.715 22.416C60.643 24.672 61.011 27.352 60.819 30.456H55.803V28.632C55.771 25.624 55.195 23.4 54.075 21.96C52.971 20.52 51.283 19.8 49.011 19.8C46.499 19.8 44.611 20.592 43.347 22.176C42.083 23.76 41.451 26.048 41.451 29.04C41.451 31.888 42.083 34.096 43.347 35.664C44.611 37.216 46.435 37.992 48.819 37.992C50.387 37.992 51.739 37.64 52.875 36.936C54.027 36.216 54.923 35.192 55.563 33.864L60.483 35.424C59.475 37.744 57.947 39.544 55.899 40.824C53.851 42.088 51.571 42.72 49.059 42.72ZM39.819 30.456V26.544H58.323V30.456H39.819ZM73.0549 42.72C71.1349 42.72 69.5269 42.368 68.2309 41.664C66.9349 40.944 65.9509 40 65.2789 38.832C64.6229 37.648 64.2949 36.352 64.2949 34.944C64.2949 33.632 64.5269 32.48 64.9909 31.488C65.4549 30.496 66.1429 29.656 67.0549 28.968C67.9669 28.264 69.0869 27.696 70.4149 27.264C71.5669 26.928 72.8709 26.632 74.3269 26.376C75.7829 26.12 77.3109 25.88 78.9109 25.656C80.5269 25.432 82.1269 25.208 83.7109 24.984L81.8869 25.992C81.9189 23.96 81.4869 22.456 80.5909 21.48C79.7109 20.488 78.1909 19.992 76.0309 19.992C74.6709 19.992 73.4229 20.312 72.2869 20.952C71.1509 21.576 70.3589 22.616 69.9109 24.072L65.2309 22.632C65.8709 20.408 67.0869 18.64 68.8789 17.328C70.6869 16.016 73.0869 15.36 76.0789 15.36C78.3989 15.36 80.4149 15.76 82.1269 16.56C83.8549 17.344 85.1189 18.592 85.9189 20.304C86.3349 21.152 86.5909 22.048 86.6869 22.992C86.7829 23.936 86.8309 24.952 86.8309 26.04V42H82.3909V36.072L83.2549 36.84C82.1829 38.824 80.8149 40.304 79.1509 41.28C77.5029 42.24 75.4709 42.72 73.0549 42.72ZM73.9429 38.616C75.3669 38.616 76.5909 38.368 77.6149 37.872C78.6389 37.36 79.4629 36.712 80.0869 35.928C80.7109 35.144 81.1189 34.328 81.3109 33.48C81.5829 32.712 81.7349 31.848 81.7669 30.888C81.8149 29.928 81.8389 29.16 81.8389 28.584L83.4709 29.184C81.8869 29.424 80.4469 29.64 79.1509 29.832C77.8549 30.024 76.6789 30.216 75.6229 30.408C74.5829 30.584 73.6549 30.8 72.8389 31.056C72.1509 31.296 71.5349 31.584 70.9909 31.92C70.4629 32.256 70.0389 32.664 69.7189 33.144C69.4149 33.624 69.2629 34.208 69.2629 34.896C69.2629 35.568 69.4309 36.192 69.7669 36.768C70.1029 37.328 70.6149 37.776 71.3029 38.112C71.9909 38.448 72.8709 38.616 73.9429 38.616ZM93.543 42V6.72H98.559V42H93.543Z" fill="black"/>
<path d="M118.486 42.72C115.91 42.72 113.758 42.12 112.03 40.92C110.302 39.72 108.998 38.088 108.118 36.024C107.254 33.96 106.822 31.632 106.822 29.04C106.822 26.448 107.254 24.12 108.118 22.056C108.982 19.992 110.254 18.36 111.934 17.16C113.614 15.96 115.686 15.36 118.15 15.36C120.63 15.36 122.79 15.952 124.63 17.136C126.47 18.32 127.894 19.944 128.902 22.008C129.926 24.056 130.438 26.4 130.438 29.04C130.438 31.632 129.934 33.96 128.926 36.024C127.934 38.088 126.542 39.72 124.75 40.92C122.958 42.12 120.87 42.72 118.486 42.72ZM105.718 42V7.44H112.294V24.24H111.478V42H105.718ZM117.43 36.912C118.838 36.912 119.99 36.56 120.886 35.856C121.782 35.152 122.446 34.208 122.878 33.024C123.31 31.824 123.526 30.496 123.526 29.04C123.526 27.6 123.302 26.288 122.854 25.104C122.406 23.904 121.71 22.952 120.766 22.248C119.838 21.528 118.646 21.168 117.19 21.168C115.83 21.168 114.726 21.496 113.878 22.152C113.046 22.808 112.438 23.728 112.054 24.912C111.67 26.096 111.478 27.472 111.478 29.04C111.478 30.608 111.67 31.984 112.054 33.168C112.438 34.352 113.062 35.272 113.926 35.928C114.806 36.584 115.974 36.912 117.43 36.912ZM142.919 42.72C141.063 42.72 139.487 42.368 138.191 41.664C136.911 40.944 135.935 39.992 135.263 38.808C134.607 37.608 134.279 36.288 134.279 34.848C134.279 33.648 134.463 32.552 134.831 31.56C135.199 30.568 135.791 29.696 136.607 28.944C137.439 28.176 138.551 27.536 139.943 27.024C140.903 26.672 142.047 26.36 143.375 26.088C144.703 25.816 146.207 25.56 147.887 25.32C149.567 25.064 151.415 24.784 153.431 24.48L151.079 25.776C151.079 24.24 150.711 23.112 149.975 22.392C149.239 21.672 148.007 21.312 146.279 21.312C145.319 21.312 144.319 21.544 143.279 22.008C142.239 22.472 141.511 23.296 141.095 24.48L135.191 22.608C135.847 20.464 137.079 18.72 138.887 17.376C140.695 16.032 143.159 15.36 146.279 15.36C148.567 15.36 150.599 15.712 152.375 16.416C154.151 17.12 155.495 18.336 156.407 20.064C156.919 21.024 157.223 21.984 157.319 22.944C157.415 23.904 157.463 24.976 157.463 26.16V42H151.751V36.672L152.567 37.776C151.303 39.52 149.935 40.784 148.463 41.568C147.007 42.336 145.159 42.72 142.919 42.72ZM144.311 37.584C145.511 37.584 146.519 37.376 147.335 36.96C148.167 36.528 148.823 36.04 149.303 35.496C149.799 34.952 150.135 34.496 150.311 34.128C150.647 33.424 150.839 32.608 150.887 31.68C150.951 30.736 150.983 29.952 150.983 29.328L152.903 29.808C150.967 30.128 149.399 30.4 148.199 30.624C146.999 30.832 146.031 31.024 145.295 31.2C144.559 31.376 143.911 31.568 143.351 31.776C142.711 32.032 142.191 32.312 141.791 32.616C141.407 32.904 141.119 33.224 140.927 33.576C140.751 33.928 140.663 34.32 140.663 34.752C140.663 35.344 140.807 35.856 141.095 36.288C141.399 36.704 141.823 37.024 142.367 37.248C142.911 37.472 143.559 37.584 144.311 37.584ZM163.704 42V16.08H169.464V22.416L168.84 21.6C169.176 20.704 169.624 19.888 170.184 19.152C170.744 18.416 171.432 17.808 172.248 17.328C172.872 16.944 173.552 16.648 174.288 16.44C175.024 16.216 175.784 16.08 176.568 16.032C177.352 15.968 178.136 15.984 178.92 16.08V22.176C178.2 21.952 177.36 21.88 176.4 21.96C175.456 22.024 174.6 22.24 173.832 22.608C173.064 22.96 172.416 23.432 171.888 24.024C171.36 24.6 170.96 25.288 170.688 26.088C170.416 26.872 170.28 27.76 170.28 28.752V42H163.704Z" fill="black"/>
<path d="M185.5 14.5L188 14V44L186 40L184 37.4375L185 25.5L185.5 14.5Z" fill="black"/>
<path d="M190.5 14.5L188 14V44L190 40L192 37.4375L191 26.5L190.5 14.5Z" fill="black"/>
<path d="M188 39C188.552 39 189 38.5523 189 38C189 37.4477 188.552 37 188 37C187.448 37 187 37.4477 187 38C187 38.5523 187.448 39 188 39Z" fill="white"/>
<path d="M188 11C189.657 11 191 9.65685 191 8C191 6.34315 189.657 5 188 5C186.343 5 185 6.34315 185 8C185 9.65685 186.343 11 188 11Z" fill="black"/>
</g>
<defs>
<clipPath id="clip0_316_231">
<rect width="199" height="58" fill="white"/>
</clipPath>
</defs>
</svg>
