<svg width="8" height="26" viewBox="0 0 8 26" fill="none" xmlns="http://www.w3.org/2000/svg">
<g clip-path="url(#clip0_244_335)">
<path d="M1.5 5.35L4 5V26L2 23.2L0 21.4062L1 13.05L1.5 5.35Z" fill="#4B27AE"/>
<path d="M6.5 5.35L4 5V26L6 23.2L8 21.4062L7 13.75L6.5 5.35Z" fill="#694AC1"/>
<path d="M4 22.3333C4.55228 22.3333 5 21.8856 5 21.3333C5 20.781 4.55228 20.3333 4 20.3333C3.44772 20.3333 3 20.781 3 21.3333C3 21.8856 3.44772 22.3333 4 22.3333Z" fill="#A0B831"/>
<path d="M4 4C5.10457 4 6 3.10457 6 2C6 0.895431 5.10457 0 4 0C2.89543 0 2 0.895431 2 2C2 3.10457 2.89543 4 4 4Z" fill="#A0B831"/>
</g>
<defs>
<clipPath id="clip0_244_335">
<rect width="8" height="26" fill="white"/>
</clipPath>
</defs>
</svg>
